<?xml version="1.0" encoding="UTF-8" standalone="no"?>
<!-- Created with Inkscape (http://www.inkscape.org/) -->

<svg
   width="64.008301mm"
   height="73.491699mm"
   viewBox="0 0 64.008301 73.491699"
   version="1.1"
   id="svg2322"
   xml:space="preserve"
   xmlns:inkscape="http://www.inkscape.org/namespaces/inkscape"
   xmlns:sodipodi="http://sodipodi.sourceforge.net/DTD/sodipodi-0.dtd"
   xmlns="http://www.w3.org/2000/svg"
   xmlns:svg="http://www.w3.org/2000/svg"><sodipodi:namedview
     id="namedview2324"
     pagecolor="#ffffff"
     bordercolor="#999999"
     borderopacity="1"
     inkscape:showpageshadow="0"
     inkscape:pageopacity="0"
     inkscape:pagecheckerboard="0"
     inkscape:deskcolor="#d1d1d1"
     inkscape:document-units="mm"
     showgrid="false"
     showguides="false"
     inkscape:zoom="3.0038052"
     inkscape:cx="359.54396"
     inkscape:cy="279.47884"
     inkscape:window-width="1848"
     inkscape:window-height="1016"
     inkscape:window-x="72"
     inkscape:window-y="27"
     inkscape:window-maximized="1"
     inkscape:current-layer="layer1" /><defs
     id="defs2319" /><g
     inkscape:label="Layer 1"
     inkscape:groupmode="layer"
     id="layer1"
     transform="translate(-63.893804,-36.746348)"><path
       sodipodi:type="star"
       style="fill:#ff8080;stroke:#aa0000;stroke-width:1.665;stroke-linecap:round;stroke-linejoin:round;stroke-dasharray:none"
       id="path2562"
       inkscape:flatsided="true"
       sodipodi:sides="6"
       sodipodi:cx="40.472202"
       sodipodi:cy="49.261757"
       sodipodi:r1="35.913631"
       sodipodi:r2="31.102114"
       sodipodi:arg1="-0.51971354"
       sodipodi:arg2="0.0038852348"
       inkscape:rounded="0"
       inkscape:randomized="0"
       d="M 71.643851,31.425915 71.504318,67.339276 40.33267,85.175117 9.3005536,67.097598 9.4400862,31.184238 40.611735,13.348397 Z"
       transform="translate(55.425749,24.23044)"
       inkscape:export-filename="path2562.svg"
       inkscape:export-xdpi="500"
       inkscape:export-ydpi="500" /><path
       style="fill:#d84747;fill-opacity:0.735346;stroke-width:1"
       d="m 94.933962,101.48684 c -0.225147,-0.024 -0.459643,-0.10705 -0.642,-0.22741 -0.03755,-0.0248 -0.882766,-0.70084 -1.878294,-1.502392 -0.995528,-0.801559 -2.375376,-1.912473 -3.066318,-2.468699 -0.690948,-0.556226 -1.283999,-1.038062 -1.317895,-1.070747 -0.204,-0.196732 -0.347936,-0.457402 -0.411533,-0.745308 -0.01493,-0.06765 -0.140914,-1.194408 -0.490327,-4.385923 -0.258622,-2.362184 -0.477325,-4.331355 -0.48601,-4.375946 -0.05291,-0.271643 -0.03976,-0.532175 0.03927,-0.778708 0.03372,-0.105197 0.13139,-0.300923 0.195374,-0.391579 0.141318,-0.200217 0.335378,-0.364658 0.556802,-0.47181 0.112747,-0.05456 0.127137,-0.0596 0.488181,-0.170985 0.149923,-0.04625 0.418362,-0.129121 0.596532,-0.184156 0.178172,-0.05503 0.722154,-0.222928 1.208861,-0.373101 0.486705,-0.150173 1.028916,-0.317547 1.20491,-0.371945 0.706125,-0.218238 4.686443,-1.44683 4.757476,-1.468472 0.281699,-0.08582 0.538375,-0.09186 0.810591,-0.01903 0.04008,0.01069 0.980507,0.358281 2.089823,0.772353 3.252965,1.214222 4.068265,1.518565 4.545285,1.696706 0.2477,0.0925 0.48414,0.179923 0.52543,0.194272 0.26814,0.09322 0.51653,0.27275 0.69338,0.501203 0.13278,0.171513 0.23414,0.399426 0.27862,0.626472 0.0371,0.189589 0.0498,-0.05939 -0.25259,4.978701 -0.156,2.599348 -0.28243,4.652012 -0.28915,4.694776 -0.0653,0.415412 -0.31238,0.79532 -0.6594,1.013809 -0.0282,0.01778 -0.48511,0.278742 -1.01529,0.579901 -4.255307,2.417236 -6.397721,3.634968 -6.520419,3.706158 -0.07935,0.046 -0.170806,0.096 -0.203224,0.11087 -0.231182,0.10659 -0.519361,0.15642 -0.758075,0.13096 z m -1.697193,-2.975472 c 0.170758,-0.05631 0.291196,-0.232367 0.339052,-0.495616 0.01692,-0.09305 0.01924,-0.359745 0.0038,-0.467072 -0.09695,-0.685642 -0.480667,-1.344074 -0.933465,-1.601753 -0.07065,-0.04019 -0.188009,-0.07951 -0.256958,-0.08605 -0.203149,-0.01925 -0.377936,0.103666 -0.462325,0.325173 -0.179577,0.471363 0.0021,1.263279 0.421652,1.836063 0.0759,0.103678 0.245105,0.278139 0.333486,0.343858 0.11087,0.08244 0.248487,0.146274 0.349892,0.162297 0.06095,0.0097 0.145284,0.0028 0.204609,-0.01691 z m 4.234611,-0.242932 c 0.3831,-0.07357 0.774542,-0.421101 1.019537,-0.905188 0.110757,-0.218826 0.176701,-0.418478 0.216405,-0.655127 0.02324,-0.138394 0.02509,-0.391111 0.0039,-0.51109 -0.05135,-0.289428 -0.191823,-0.507976 -0.388218,-0.603877 -0.08357,-0.04079 -0.141355,-0.05574 -0.237862,-0.06142 -0.266391,-0.0157 -0.547219,0.118196 -0.813765,0.388012 -0.368124,0.372637 -0.611627,0.95267 -0.611524,1.456675 9.6e-5,0.473709 0.197674,0.805545 0.528713,0.887992 0.07479,0.01866 0.197713,0.02039 0.282872,0.0038 z m 3.95668,-1.89525 c 0.54602,-0.09009 1.09198,-0.748437 1.24044,-1.495812 0.0962,-0.484141 -0.008,-0.917862 -0.26814,-1.119547 -0.11087,-0.0859 -0.22732,-0.124518 -0.37577,-0.124671 -0.14338,-1.53e-4 -0.24145,0.02557 -0.39901,0.104769 -0.5702,0.286515 -1.01558,1.09469 -0.98921,1.795007 0.006,0.137668 0.02,0.230891 0.0544,0.339827 0.11519,0.366496 0.39562,0.556815 0.73737,0.500427 z M 90.191813,95.957011 c 0.158747,-0.04189 0.265911,-0.208639 0.297555,-0.463085 0.0132,-0.106232 0.0056,-0.30784 -0.01633,-0.436044 -0.104094,-0.607254 -0.497542,-1.195063 -0.864668,-1.291804 -0.279162,-0.07356 -0.47808,0.180027 -0.478285,0.609745 -1.41e-4,0.298464 0.07969,0.608709 0.236084,0.917443 0.234075,0.462102 0.569043,0.731389 0.825618,0.663745 z m 2.849281,-0.313075 c 0.295334,-0.08166 0.433576,-0.512978 0.33925,-1.058487 -0.102732,-0.594126 -0.439076,-1.183348 -0.831456,-1.456593 -0.208807,-0.145406 -0.415285,-0.180502 -0.576484,-0.09799 -0.02284,0.01167 -0.06838,0.04849 -0.101573,0.08208 -0.0501,0.05072 -0.0669,0.07491 -0.100503,0.144861 -0.220698,0.459398 -0.04035,1.303339 0.407374,1.906507 0.08108,0.109227 0.256365,0.284596 0.345868,0.346034 0.196489,0.134869 0.360129,0.177114 0.517524,0.133598 z M 89.94887,93.477638 c 0.347671,-0.171705 0.370948,-0.969932 0.04973,-1.705716 -0.190778,-0.436999 -0.467692,-0.755424 -0.721524,-0.829696 -0.03383,-0.0099 -0.06621,-0.01276 -0.118516,-0.01036 -0.06316,0.0028 -0.078,0.0065 -0.121572,0.03015 -0.174561,0.09454 -0.270383,0.340731 -0.270356,0.694617 5.3e-5,0.71961 0.411981,1.585529 0.857459,1.802502 0.12732,0.06201 0.225384,0.06759 0.324779,0.01849 z m 7.476938,-0.144266 c 0.572613,-0.109947 1.121379,-0.816901 1.238257,-1.595178 0.01688,-0.112153 0.01868,-0.357201 0.0032,-0.451881 -0.03686,-0.228322 -0.108315,-0.384724 -0.233925,-0.51187 -0.05317,-0.05383 -0.08704,-0.08041 -0.134319,-0.105422 -0.356602,-0.188682 -0.836716,0.0011 -1.216793,0.481329 -0.180763,0.228326 -0.349289,0.580261 -0.417461,0.871771 -0.07833,0.334968 -0.0659,0.658886 0.03465,0.903388 0.07278,0.176963 0.212274,0.319686 0.373409,0.38204 0.1002,0.03878 0.234235,0.04859 0.352765,0.0258 z m -4.621747,-0.691931 c 0.109856,-0.01794 0.213219,-0.08919 0.283292,-0.195238 0.174885,-0.264677 0.177228,-0.750641 0.0061,-1.256211 -0.248504,-0.733992 -0.789174,-1.281136 -1.19713,-1.211485 -0.192992,0.03295 -0.330378,0.199727 -0.389348,0.47264 -0.016,0.07401 -0.018,0.104893 -0.01789,0.275313 1.62e-4,0.218499 0.01131,0.305805 0.06658,0.521266 0.08844,0.344751 0.258772,0.69181 0.467368,0.952266 0.126006,0.15734 0.297286,0.303515 0.437353,0.373265 0.131868,0.06567 0.234512,0.08603 0.343696,0.06819 z m 8.723779,-1.042915 c 0.43818,-0.07735 0.88529,-0.519042 1.11687,-1.103355 0.10299,-0.259982 0.14812,-0.486908 0.14787,-0.744457 -3.9e-4,-0.447846 -0.17637,-0.760115 -0.48751,-0.865222 -0.0565,-0.01909 -0.0753,-0.02138 -0.17777,-0.02176 -0.15694,-5.5e-4 -0.2519,0.02291 -0.40518,0.100098 -0.30316,0.152737 -0.58191,0.45582 -0.77057,0.837848 -0.25244,0.511184 -0.29752,1.066554 -0.11627,1.432656 0.13862,0.280009 0.3977,0.416247 0.69256,0.3642 z M 89.584376,90.671583 c 0.288811,-0.07821 0.418183,-0.482631 0.327398,-1.023418 -0.105602,-0.629053 -0.49753,-1.263498 -0.895308,-1.449329 -0.137531,-0.06425 -0.276079,-0.0708 -0.380173,-0.018 -0.148413,0.07532 -0.241962,0.237113 -0.277117,0.479283 -0.01762,0.121213 -0.01212,0.360437 0.01143,0.499691 0.109575,0.64759 0.491043,1.26995 0.899484,1.467484 0.103441,0.05002 0.228155,0.06759 0.314279,0.04429 z m 5.894189,-2.708163 c 0.449906,-0.05062 0.808709,-0.15944 1.050446,-0.318612 0.08497,-0.05595 0.185865,-0.161894 0.218397,-0.22932 0.02382,-0.04941 0.02693,-0.0632 0.02693,-0.120139 0,-0.0562 -0.0033,-0.07088 -0.02527,-0.11632 -0.194141,-0.399186 -1.277033,-0.565197 -2.163429,-0.331667 -0.19864,0.05236 -0.404876,0.139156 -0.533198,0.224466 -0.09055,0.0602 -0.182292,0.153368 -0.218434,0.221831 -0.02888,0.05468 -0.03043,0.06142 -0.03043,0.129782 0,0.06517 0.0027,0.07718 0.02571,0.124948 0.06427,0.132273 0.253962,0.254866 0.511613,0.330648 0.142778,0.042 0.362171,0.0792 0.560956,0.09512 0.07493,0.006 0.497966,-0.0016 0.57678,-0.01069 z m 0.367402,-1.619132 c 0.427881,-0.05513 0.766389,-0.162601 0.977511,-0.310342 0.07439,-0.05202 0.152186,-0.136008 0.180914,-0.195228 0.05033,-0.103801 0.02134,-0.217823 -0.07978,-0.313571 -0.149206,-0.141289 -0.424325,-0.238625 -0.810009,-0.286586 -0.143429,-0.01783 -0.568563,-0.02034 -0.715042,-0.0044 -0.448048,0.0493 -0.809341,0.157126 -1.034008,0.308603 -0.149081,0.100514 -0.21907,0.201079 -0.219225,0.314989 -3.46e-4,0.246603 0.412072,0.447464 1.028054,0.500706 0.09363,0.0081 0.577753,-0.0023 0.671589,-0.01434 z m 4.187553,-0.04117 c 0.35255,-0.04058 0.62893,-0.14684 0.76297,-0.293398 0.0647,-0.0708 0.0863,-0.121355 0.0863,-0.201989 0,-0.08743 -0.0293,-0.15061 -0.10772,-0.232566 -0.3547,-0.370292 -1.395187,-0.521245 -2.055916,-0.298273 -0.357097,0.120504 -0.513953,0.323988 -0.410905,0.533047 0.02823,0.05729 0.129028,0.161588 0.20475,0.211878 0.346425,0.230068 0.967344,0.344942 1.520491,0.281301 z m -8.015616,-0.107899 c 0.627807,-0.05459 1.108808,-0.30533 1.165424,-0.607525 0.01524,-0.08139 -0.01783,-0.185541 -0.08337,-0.262414 -0.09665,-0.113381 -0.301062,-0.214851 -0.540827,-0.268478 -0.281358,-0.06292 -0.64006,-0.06442 -0.95603,-0.0038 -0.294014,0.05624 -0.563013,0.170728 -0.71876,0.305903 -0.198456,0.172251 -0.225928,0.372158 -0.07343,0.534384 0.158904,0.169049 0.442009,0.271468 0.843553,0.305167 0.07441,0.0062 0.275902,0.0044 0.363449,-0.0033 z m 4.053243,-1.295664 c 0.503489,-0.0438 0.904199,-0.208971 1.046136,-0.431262 0.0935,-0.146453 0.04488,-0.295818 -0.135456,-0.416082 -0.288239,-0.192212 -0.851031,-0.252756 -1.373852,-0.147789 -0.373883,0.07507 -0.662419,0.235138 -0.750574,0.416399 -0.02317,0.04767 -0.02672,0.06292 -0.02672,0.115098 0,0.04941 0.0038,0.068 0.02155,0.104139 0.07696,0.157007 0.290535,0.272498 0.614478,0.332283 0.183899,0.03393 0.410015,0.04412 0.60443,0.02722 z"
       id="path4696" /><text
       xml:space="preserve"
       style="font-size:14.7745px;line-height:1.25;font-family:Wallop;-inkscape-font-specification:'Wallop, Normal';stroke-width:0.264583"
       x="80.199867"
       y="70.915451"
       id="text3172"
       transform="scale(0.99966682,1.0003333)"><tspan
         sodipodi:role="line"
         id="tspan3170"
         style="font-style:normal;font-variant:normal;font-weight:normal;font-stretch:normal;font-family:'Comic Sans MS';-inkscape-font-specification:'Comic Sans MS';stroke-width:0.264583"
         x="80.199867"
         y="70.915451">Pito<tspan
   style="font-style:normal;font-variant:normal;font-weight:normal;font-stretch:normal;font-size:9.60342px;font-family:'Comic Sans MS';-inkscape-font-specification:'Comic Sans MS';baseline-shift:super;stroke-width:0.264583"
   id="tspan3224">2</tspan></tspan></text><text
       xml:space="preserve"
       style="font-size:4.36504px;line-height:1.25;font-family:Wallop;-inkscape-font-specification:'Wallop, Normal';stroke-width:0.264583"
       x="74.20401"
       y="81.6436"
       id="text3954"><tspan
         sodipodi:role="line"
         id="tspan3952"
         style="font-style:normal;font-variant:normal;font-weight:normal;font-stretch:normal;font-family:'Comic Sans MS';-inkscape-font-specification:'Comic Sans MS';stroke-width:0.264583"
         x="74.20401"
         y="81.6436">Awful statistics... </tspan><tspan
         sodipodi:role="line"
         style="font-style:normal;font-variant:normal;font-weight:normal;font-stretch:normal;font-family:'Comic Sans MS';-inkscape-font-specification:'Comic Sans MS';stroke-width:0.264583"
         x="74.20401"
         y="87.343391"
         id="tspan3956">                   made easy</tspan></text></g></svg>
